<svg width="31" height="29" viewBox="0 0 31 29" fill="none" xmlns="http://www.w3.org/2000/svg">
<path d="M13.5993 11.2205C10.2583 9.61889 6.13228 10.2022 3.36396 12.9706C-0.146824 16.4814 -0.146824 22.1877 3.36396 25.6985C6.87475 29.2093 12.5811 29.2093 16.0919 25.6985C18.8602 22.9302 19.4436 18.8042 17.842 15.4631L22.4558 10.8493L26.6985 15.0919L30.9411 10.8493L26.6985 6.60661L28.8198 4.48529L24.5772 0.242651L13.5993 11.2205ZM11.8492 21.4559C10.6825 22.6226 8.77333 22.6226 7.6066 21.4559C6.43988 20.2891 6.43988 18.3799 7.6066 17.2132C8.77333 16.0465 10.6825 16.0465 11.8492 17.2132C13.016 18.3799 13.016 20.2891 11.8492 21.4559Z" fill="#18134C"/>
</svg>
